<?xml version="1.0" encoding="UTF-8" standalone="no"?>
<!-- Created with Inkscape (http://www.inkscape.org/) -->

<svg
   xmlns:dc="http://purl.org/dc/elements/1.1/"
   xmlns:cc="http://creativecommons.org/ns#"
   xmlns:rdf="http://www.w3.org/1999/02/22-rdf-syntax-ns#"
   xmlns:svg="http://www.w3.org/2000/svg"
   xmlns="http://www.w3.org/2000/svg"
   xmlns:sodipodi="http://sodipodi.sourceforge.net/DTD/sodipodi-0.dtd"
   xmlns:inkscape="http://www.inkscape.org/namespaces/inkscape"
   version="1.1"
   id="svg3753"
   xml:space="preserve"
   width="1496"
   height="1496"
   viewBox="0 0 1496 1496"
   sodipodi:docname="lock.svg"
   inkscape:version="0.92.3 (2405546, 2018-03-11)"><metadata
     id="metadata3759"><rdf:RDF><cc:Work
         rdf:about=""><dc:format>image/svg+xml</dc:format><dc:type
           rdf:resource="http://purl.org/dc/dcmitype/StillImage" /><dc:title></dc:title></cc:Work></rdf:RDF></metadata><defs
     id="defs3757"><clipPath
       clipPathUnits="userSpaceOnUse"
       id="clipPath3771"><path
         d="M 0,1122 H 1122 V 0 H 0 Z"
         id="path3769"
         inkscape:connector-curvature="0" /></clipPath></defs><sodipodi:namedview
     pagecolor="#ffffff"
     bordercolor="#666666"
     borderopacity="1"
     objecttolerance="10"
     gridtolerance="10"
     guidetolerance="10"
     inkscape:pageopacity="0"
     inkscape:pageshadow="2"
     inkscape:window-width="1920"
     inkscape:window-height="1017"
     id="namedview3755"
     showgrid="false"
     inkscape:zoom="0.15775401"
     inkscape:cx="748"
     inkscape:cy="748"
     inkscape:window-x="-8"
     inkscape:window-y="-8"
     inkscape:window-maximized="1"
     inkscape:current-layer="g3761" /><g
     id="g3761"
     inkscape:groupmode="layer"
     inkscape:label="access-3550527"
     transform="matrix(1.3333333,0,0,-1.3333333,0,1496)"><path
       style="fill:#eef2f2;fill-opacity:1;fill-rule:nonzero;stroke:none;stroke-width:1.33333325"
       d="M 0 0 L 0 1496 L 1496 1496 L 1496 0 L 0 0 z "
       transform="matrix(0.75000002,0,0,-0.75000002,0,1122)"
       id="path3763" /><g
       id="g3765"
       inkscape:export-xdpi="23.040001"
       inkscape:export-ydpi="23.040001"><g
         id="g3767"
         clip-path="url(#clipPath3771)"><g
           id="g3773"
           transform="translate(585.1525,412.5203)"><path
             d="m 0,0 v -70.75 c 0,-13.308 -10.861,-24.168 -24.169,-24.168 -13.275,0 -24.17,10.86 -24.17,24.168 V 0 c -18.274,8.929 -30.858,27.721 -30.858,49.441 0,30.378 24.652,55.03 55.028,55.03 30.409,0 55.061,-24.652 55.061,-55.03 C 30.892,27.721 18.307,8.929 0,0 m 154.331,192.341 h -356.997 c -18.459,0 -33.587,-13.787 -33.587,-30.61 V -163.63 c 0,-16.852 15.128,-30.639 33.587,-30.639 h 356.997 c 18.489,0 33.617,13.787 33.617,30.639 v 325.361 c 0,16.823 -15.128,30.61 -33.617,30.61"
             style="fill:#f9c125;fill-opacity:1;fill-rule:nonzero;stroke:none"
             id="path3775"
             inkscape:connector-curvature="0" /></g><g
           id="g3777"
           transform="translate(453.8303,632.2793)"><path
             d="m 0,0 v 99.512 c 0,57.987 47.176,105.163 105.164,105.163 57.988,0 105.163,-47.176 105.163,-105.163 V 0 h 66.796 v 99.512 c 0,94.817 -77.14,171.957 -171.959,171.957 -94.818,0 -171.96,-77.14 -171.96,-171.957 l 0,-99.512 z"
             style="fill:#f9c125;fill-opacity:1;fill-rule:nonzero;stroke:none"
             id="path3779"
             inkscape:connector-curvature="0" /></g></g></g></g></svg>